<svg width="24" height="25" viewBox="0 0 24 25" fill="none" xmlns="http://www.w3.org/2000/svg">
<path d="M8.38965 19.146V8.98598C8.38965 8.58598 8.50965 8.19598 8.72965 7.86598L11.4596 3.80598C11.8896 3.15598 12.9596 2.69598 13.8696 3.03598C14.8496 3.36598 15.4996 4.46598 15.2896 5.44598L14.7696 8.71598C14.7296 9.01598 14.8096 9.28598 14.9796 9.49598C15.1496 9.68598 15.3996 9.80598 15.6696 9.80598H19.7796C20.5696 9.80598 21.2496 10.126 21.6496 10.686C22.0296 11.226 22.0996 11.926 21.8496 12.636L19.3896 20.126C19.0796 21.366 17.7296 22.376 16.3896 22.376H12.4896C11.8196 22.376 10.8796 22.146 10.4496 21.716L9.16965 20.726C8.67965 20.356 8.38965 19.766 8.38965 19.146Z" fill="white"/>
<path d="M5.21 7.03613H4.18C2.63 7.03613 2 7.63613 2 9.11613V19.1761C2 20.6561 2.63 21.2561 4.18 21.2561H5.21C6.76 21.2561 7.39 20.6561 7.39 19.1761V9.11613C7.39 7.63613 6.76 7.03613 5.21 7.03613Z" fill="white"/>
</svg>
