<svg width="24" height="25" viewBox="0 0 24 25" fill="none" xmlns="http://www.w3.org/2000/svg">
<path d="M17 2.65625H7C4.24 2.65625 2 4.88625 2 7.63625V13.6163V14.6163C2 17.3663 4.24 19.5963 7 19.5963H8.5C8.77 19.5963 9.13 19.7763 9.3 19.9963L10.8 21.9862C11.46 22.8662 12.54 22.8662 13.2 21.9862L14.7 19.9963C14.89 19.7463 15.19 19.5963 15.5 19.5963H17C19.76 19.5963 22 17.3663 22 14.6163V7.63625C22 4.88625 19.76 2.65625 17 2.65625ZM8 12.6562C7.44 12.6562 7 12.2063 7 11.6562C7 11.1062 7.45 10.6562 8 10.6562C8.55 10.6562 9 11.1062 9 11.6562C9 12.2063 8.56 12.6562 8 12.6562ZM12 12.6562C11.44 12.6562 11 12.2063 11 11.6562C11 11.1062 11.45 10.6562 12 10.6562C12.55 10.6562 13 11.1062 13 11.6562C13 12.2063 12.56 12.6562 12 12.6562ZM16 12.6562C15.44 12.6562 15 12.2063 15 11.6562C15 11.1062 15.45 10.6562 16 10.6562C16.55 10.6562 17 11.1062 17 11.6562C17 12.2063 16.56 12.6562 16 12.6562Z" fill="white"/>
</svg>
