<svg width="24" height="25" viewBox="0 0 24 25" fill="none" xmlns="http://www.w3.org/2000/svg">
<path d="M16.1401 3.61629L7.11012 6.61629C1.04012 8.64629 1.04012 11.9563 7.11012 13.9763L9.79012 14.8663L10.6801 17.5463C12.7001 23.6163 16.0201 23.6163 18.0401 17.5463L21.0501 8.52629C22.3901 4.47629 20.1901 2.26629 16.1401 3.61629ZM16.4601 8.99629L12.6601 12.8163C12.5101 12.9663 12.3201 13.0363 12.1301 13.0363C11.9401 13.0363 11.7501 12.9663 11.6001 12.8163C11.3101 12.5263 11.3101 12.0463 11.6001 11.7563L15.4001 7.93629C15.6901 7.64629 16.1701 7.64629 16.4601 7.93629C16.7501 8.22629 16.7501 8.70629 16.4601 8.99629Z" fill="white"/>
</svg>
